<svg id="b" xmlns="http://www.w3.org/2000/svg" viewBox="0 0 140.37 59.53">
    <g id="c" fill="#ffffff">
        <path d="M24.42.85c-2.29-1.54-5.4-.93-6.94,1.36L.85,26.98c-1.13,1.69-1.13,3.89,0,5.58l16.64,24.76c.96,1.44,2.55,2.21,4.15,2.21.96,0,1.93-.28,2.78-.85,2.29-1.54,2.9-4.65,1.36-6.94l-14.76-21.98L25.79,7.79c1.54-2.29.93-5.4-1.36-6.94Z"/>
        <path d="M139.52,26.98L122.88,2.21c-1.54-2.29-4.65-2.9-6.94-1.36-2.29,1.54-2.9,4.65-1.36,6.94l14.76,21.98-14.76,21.98c-1.54,2.29-.93,5.4,1.36,6.94.86.57,1.82.85,2.78.85,1.61,0,3.19-.78,4.16-2.21l16.64-24.76c1.13-1.69,1.13-3.89,0-5.58Z"/>
        <path d="M106.12,3.06c-2.59-.94-5.46.39-6.41,2.99l-16.02,44.01c-.94,2.59.39,5.46,2.99,6.41.56.21,1.14.3,1.71.3,2.04,0,3.96-1.26,4.7-3.29l16.02-44.01c.94-2.59-.39-5.46-2.99-6.41Z"/>
        <path d="M75.41,54.01c.05-.1.09-.19.13-.29.03-.08.08-.15.11-.24l11.23-30.86c.94-2.59-.39-5.46-2.99-6.41-2.59-.94-5.46.39-6.41,2.99l-6.53,17.95-6.53-17.95c-.82-2.24-3.07-3.54-5.34-3.24-2.27-.3-4.53,1-5.35,3.24l-6.53,17.95-6.53-17.95c-.94-2.6-3.81-3.93-6.41-2.99-2.6.94-3.93,3.81-2.99,6.41l11.23,30.86c.03.08.07.15.11.23.04.1.09.2.14.3.09.19.2.37.32.54.05.07.09.15.14.21.18.24.37.46.58.66.02.02.05.04.07.06.2.18.41.34.64.48.08.05.16.09.24.14.2.11.4.21.62.3.05.02.09.05.14.07.03.01.06.01.09.03.19.06.38.11.57.15.08.02.15.04.23.05.27.04.54.07.81.07s.54-.03.81-.07c.08-.01.15-.04.23-.05.19-.04.39-.09.57-.15.03-.01.06-.01.1-.03.05-.02.09-.05.15-.07.21-.09.42-.18.62-.3.08-.05.16-.09.24-.14.22-.14.44-.31.64-.48.02-.02.05-.03.07-.05.21-.2.41-.42.59-.66.05-.07.09-.14.14-.21.12-.17.23-.35.32-.55.05-.1.09-.19.13-.29.03-.08.08-.15.11-.24l7.18-19.72,7.18,19.72c.03.08.07.16.11.24.04.1.09.2.13.29.1.19.2.37.32.54.05.07.09.14.14.21.18.24.37.46.59.66.02.02.05.04.07.06.2.18.41.34.64.48.08.05.16.09.24.14.2.11.4.21.62.3.05.02.09.05.15.07.03.01.06.01.09.03.19.06.38.11.57.15.08.02.15.04.23.05.27.04.54.07.81.07s.54-.03.81-.07c.08-.01.15-.04.23-.05.19-.04.39-.09.57-.15.03-.01.06-.01.1-.03.05-.02.09-.05.15-.07.21-.09.42-.18.62-.3.08-.05.16-.09.24-.14.22-.14.44-.31.64-.48.02-.02.05-.03.07-.05.21-.2.41-.42.59-.66.05-.07.09-.14.14-.21.12-.17.23-.35.32-.55Z"/>
    </g>
</svg>